<mxfile host="Electron" agent="Mozilla/5.0 (Windows NT 10.0; Win64; x64) AppleWebKit/537.36 (KHTML, like Gecko) draw.io/27.0.2 Chrome/134.0.6998.205 Electron/35.3.0 Safari/537.36" version="27.0.2">
  <diagram name="Page-1" id="bIHONK1rJ5rtWLxpOWbc">
    <mxGraphModel dx="1895" dy="1313" grid="1" gridSize="10" guides="1" tooltips="1" connect="1" arrows="1" fold="1" page="1" pageScale="1" pageWidth="1920" pageHeight="1200" math="0" shadow="0">
      <root>
        <mxCell id="0" />
        <mxCell id="1" parent="0" />
        <mxCell id="h0y96UvHI-Y2kzttv8R7-1" value="" style="rounded=1;whiteSpace=wrap;html=1;strokeColor=#d6b656;fillColor=none;strokeWidth=2;" vertex="1" parent="1">
          <mxGeometry x="1280" y="240" width="360" height="920" as="geometry" />
        </mxCell>
        <mxCell id="9j3WJ7CTVvGNRlXjqqHw-1" value="&lt;b&gt;&lt;font style=&quot;font-size: 41px;&quot;&gt;Data Flow Diagram&lt;/font&gt;&lt;/b&gt;" style="text;html=1;align=center;verticalAlign=middle;whiteSpace=wrap;rounded=0;" parent="1" vertex="1">
          <mxGeometry width="500" height="70" as="geometry" />
        </mxCell>
        <mxCell id="9j3WJ7CTVvGNRlXjqqHw-2" value="" style="rounded=0;whiteSpace=wrap;html=1;dashed=1;dashPattern=8 8;strokeColor=light-dark(#7e7c7c, #ededed);" parent="1" vertex="1">
          <mxGeometry x="30" y="150" width="290" height="1010" as="geometry" />
        </mxCell>
        <mxCell id="9j3WJ7CTVvGNRlXjqqHw-3" value="&lt;b&gt;&lt;font style=&quot;font-size: 28px;&quot;&gt;Sources&lt;/font&gt;&lt;/b&gt;" style="rounded=0;whiteSpace=wrap;html=1;strokeColor=none;" parent="1" vertex="1">
          <mxGeometry x="92.5" y="120" width="165" height="60" as="geometry" />
        </mxCell>
        <mxCell id="9j3WJ7CTVvGNRlXjqqHw-20" style="edgeStyle=orthogonalEdgeStyle;rounded=0;orthogonalLoop=1;jettySize=auto;html=1;" parent="1" source="9j3WJ7CTVvGNRlXjqqHw-4" target="9j3WJ7CTVvGNRlXjqqHw-17" edge="1">
          <mxGeometry relative="1" as="geometry" />
        </mxCell>
        <mxCell id="9j3WJ7CTVvGNRlXjqqHw-21" style="edgeStyle=orthogonalEdgeStyle;rounded=0;orthogonalLoop=1;jettySize=auto;html=1;" parent="1" source="9j3WJ7CTVvGNRlXjqqHw-4" target="9j3WJ7CTVvGNRlXjqqHw-18" edge="1">
          <mxGeometry relative="1" as="geometry" />
        </mxCell>
        <mxCell id="9j3WJ7CTVvGNRlXjqqHw-22" style="edgeStyle=orthogonalEdgeStyle;rounded=0;orthogonalLoop=1;jettySize=auto;html=1;entryX=0;entryY=0.75;entryDx=0;entryDy=0;" parent="1" source="9j3WJ7CTVvGNRlXjqqHw-4" target="9j3WJ7CTVvGNRlXjqqHw-19" edge="1">
          <mxGeometry relative="1" as="geometry" />
        </mxCell>
        <mxCell id="9j3WJ7CTVvGNRlXjqqHw-4" value="&lt;font style=&quot;font-size: 26px;&quot;&gt;&lt;b&gt;CRM&lt;/b&gt;&lt;/font&gt;" style="image;aspect=fixed;html=1;points=[];align=center;fontSize=12;image=img/lib/azure2/general/Folder_Blank.svg;" parent="1" vertex="1">
          <mxGeometry x="101.07000000000001" y="400" width="147.86" height="120" as="geometry" />
        </mxCell>
        <mxCell id="9j3WJ7CTVvGNRlXjqqHw-6" value="" style="image;aspect=fixed;html=1;points=[];align=center;fontSize=12;image=img/lib/azure2/general/File.svg;" parent="1" vertex="1">
          <mxGeometry x="213.93" y="470" width="48.7" height="60" as="geometry" />
        </mxCell>
        <mxCell id="9j3WJ7CTVvGNRlXjqqHw-8" value="" style="rounded=1;whiteSpace=wrap;html=1;strokeColor=#d79b00;fillColor=none;strokeWidth=2;" parent="1" vertex="1">
          <mxGeometry x="400" y="240" width="360" height="920" as="geometry" />
        </mxCell>
        <mxCell id="9j3WJ7CTVvGNRlXjqqHw-26" style="edgeStyle=orthogonalEdgeStyle;rounded=0;orthogonalLoop=1;jettySize=auto;html=1;" parent="1" source="9j3WJ7CTVvGNRlXjqqHw-14" target="9j3WJ7CTVvGNRlXjqqHw-25" edge="1">
          <mxGeometry relative="1" as="geometry" />
        </mxCell>
        <mxCell id="9j3WJ7CTVvGNRlXjqqHw-27" style="edgeStyle=orthogonalEdgeStyle;rounded=0;orthogonalLoop=1;jettySize=auto;html=1;" parent="1" source="9j3WJ7CTVvGNRlXjqqHw-14" target="9j3WJ7CTVvGNRlXjqqHw-24" edge="1">
          <mxGeometry relative="1" as="geometry" />
        </mxCell>
        <mxCell id="9j3WJ7CTVvGNRlXjqqHw-28" style="edgeStyle=orthogonalEdgeStyle;rounded=0;orthogonalLoop=1;jettySize=auto;html=1;" parent="1" source="9j3WJ7CTVvGNRlXjqqHw-14" target="9j3WJ7CTVvGNRlXjqqHw-23" edge="1">
          <mxGeometry relative="1" as="geometry" />
        </mxCell>
        <mxCell id="9j3WJ7CTVvGNRlXjqqHw-14" value="&lt;font style=&quot;font-size: 26px;&quot;&gt;&lt;b&gt;ERP&lt;/b&gt;&lt;/font&gt;" style="image;aspect=fixed;html=1;points=[];align=center;fontSize=12;image=img/lib/azure2/general/Folder_Blank.svg;" parent="1" vertex="1">
          <mxGeometry x="101.07" y="780" width="147.86" height="120" as="geometry" />
        </mxCell>
        <mxCell id="9j3WJ7CTVvGNRlXjqqHw-15" value="" style="image;aspect=fixed;html=1;points=[];align=center;fontSize=12;image=img/lib/azure2/general/File.svg;" parent="1" vertex="1">
          <mxGeometry x="210" y="860" width="48.7" height="60" as="geometry" />
        </mxCell>
        <mxCell id="9j3WJ7CTVvGNRlXjqqHw-16" value="&lt;font style=&quot;font-size: 30px;&quot;&gt;&lt;b&gt;Bronze Layer&lt;/b&gt;&lt;/font&gt;" style="rounded=1;whiteSpace=wrap;html=1;fillColor=#ffe6cc;strokeColor=#d79b00;arcSize=22;" parent="1" vertex="1">
          <mxGeometry x="400" y="150" width="360" height="70" as="geometry" />
        </mxCell>
        <mxCell id="PcdXGyEL9OMKaPJquJNA-9" style="edgeStyle=orthogonalEdgeStyle;rounded=0;orthogonalLoop=1;jettySize=auto;html=1;" parent="1" source="9j3WJ7CTVvGNRlXjqqHw-17" target="PcdXGyEL9OMKaPJquJNA-3" edge="1">
          <mxGeometry relative="1" as="geometry" />
        </mxCell>
        <mxCell id="9j3WJ7CTVvGNRlXjqqHw-17" value="&lt;font style=&quot;font-size: 25px;&quot;&gt;crm_sales_details&lt;/font&gt;" style="rounded=1;whiteSpace=wrap;html=1;fillColor=#ffe6cc;strokeColor=#d79b00;" parent="1" vertex="1">
          <mxGeometry x="415" y="340" width="330" height="60" as="geometry" />
        </mxCell>
        <mxCell id="PcdXGyEL9OMKaPJquJNA-10" style="edgeStyle=orthogonalEdgeStyle;rounded=0;orthogonalLoop=1;jettySize=auto;html=1;" parent="1" source="9j3WJ7CTVvGNRlXjqqHw-18" target="PcdXGyEL9OMKaPJquJNA-4" edge="1">
          <mxGeometry relative="1" as="geometry" />
        </mxCell>
        <mxCell id="9j3WJ7CTVvGNRlXjqqHw-18" value="&lt;font style=&quot;font-size: 25px;&quot;&gt;crm_cust_info&lt;/font&gt;" style="rounded=1;whiteSpace=wrap;html=1;fillColor=#ffe6cc;strokeColor=#d79b00;" parent="1" vertex="1">
          <mxGeometry x="415" y="430" width="330" height="60" as="geometry" />
        </mxCell>
        <mxCell id="PcdXGyEL9OMKaPJquJNA-11" style="edgeStyle=orthogonalEdgeStyle;rounded=0;orthogonalLoop=1;jettySize=auto;html=1;" parent="1" source="9j3WJ7CTVvGNRlXjqqHw-19" target="PcdXGyEL9OMKaPJquJNA-5" edge="1">
          <mxGeometry relative="1" as="geometry" />
        </mxCell>
        <mxCell id="9j3WJ7CTVvGNRlXjqqHw-19" value="&lt;font style=&quot;font-size: 25px;&quot;&gt;crm_prd_info&lt;/font&gt;" style="rounded=1;whiteSpace=wrap;html=1;fillColor=#ffe6cc;strokeColor=#d79b00;" parent="1" vertex="1">
          <mxGeometry x="415" y="520" width="330" height="60" as="geometry" />
        </mxCell>
        <mxCell id="PcdXGyEL9OMKaPJquJNA-14" style="edgeStyle=orthogonalEdgeStyle;rounded=0;orthogonalLoop=1;jettySize=auto;html=1;" parent="1" source="9j3WJ7CTVvGNRlXjqqHw-23" target="PcdXGyEL9OMKaPJquJNA-6" edge="1">
          <mxGeometry relative="1" as="geometry" />
        </mxCell>
        <mxCell id="9j3WJ7CTVvGNRlXjqqHw-23" value="&lt;font style=&quot;font-size: 25px;&quot;&gt;erp_px_cat_g1v2&lt;/font&gt;" style="rounded=1;whiteSpace=wrap;html=1;fillColor=#ffe6cc;strokeColor=#d79b00;" parent="1" vertex="1">
          <mxGeometry x="415" y="900" width="330" height="60" as="geometry" />
        </mxCell>
        <mxCell id="PcdXGyEL9OMKaPJquJNA-13" style="edgeStyle=orthogonalEdgeStyle;rounded=0;orthogonalLoop=1;jettySize=auto;html=1;" parent="1" source="9j3WJ7CTVvGNRlXjqqHw-24" target="PcdXGyEL9OMKaPJquJNA-7" edge="1">
          <mxGeometry relative="1" as="geometry" />
        </mxCell>
        <mxCell id="9j3WJ7CTVvGNRlXjqqHw-24" value="&lt;font style=&quot;font-size: 25px;&quot;&gt;erp_loc_a101&lt;/font&gt;" style="rounded=1;whiteSpace=wrap;html=1;fillColor=#ffe6cc;strokeColor=#d79b00;" parent="1" vertex="1">
          <mxGeometry x="415" y="810" width="330" height="60" as="geometry" />
        </mxCell>
        <mxCell id="PcdXGyEL9OMKaPJquJNA-12" style="edgeStyle=orthogonalEdgeStyle;rounded=0;orthogonalLoop=1;jettySize=auto;html=1;" parent="1" source="9j3WJ7CTVvGNRlXjqqHw-25" target="PcdXGyEL9OMKaPJquJNA-8" edge="1">
          <mxGeometry relative="1" as="geometry" />
        </mxCell>
        <mxCell id="9j3WJ7CTVvGNRlXjqqHw-25" value="&lt;font style=&quot;font-size: 25px;&quot;&gt;erp_cust_az12&lt;/font&gt;" style="rounded=1;whiteSpace=wrap;html=1;fillColor=#ffe6cc;strokeColor=#d79b00;" parent="1" vertex="1">
          <mxGeometry x="415" y="720" width="330" height="60" as="geometry" />
        </mxCell>
        <mxCell id="PcdXGyEL9OMKaPJquJNA-1" value="" style="rounded=1;whiteSpace=wrap;html=1;strokeColor=#666666;fillColor=none;strokeWidth=2;fontColor=#333333;" parent="1" vertex="1">
          <mxGeometry x="840" y="240" width="360" height="920" as="geometry" />
        </mxCell>
        <mxCell id="PcdXGyEL9OMKaPJquJNA-2" value="&lt;font style=&quot;font-size: 30px;&quot;&gt;&lt;b&gt;Silver Layer&lt;/b&gt;&lt;/font&gt;" style="rounded=1;whiteSpace=wrap;html=1;fillColor=#f5f5f5;strokeColor=#666666;arcSize=22;fontColor=#333333;" parent="1" vertex="1">
          <mxGeometry x="840" y="150" width="360" height="70" as="geometry" />
        </mxCell>
        <mxCell id="h0y96UvHI-Y2kzttv8R7-9" style="edgeStyle=orthogonalEdgeStyle;rounded=0;orthogonalLoop=1;jettySize=auto;html=1;entryX=0;entryY=0.5;entryDx=0;entryDy=0;" edge="1" parent="1" source="PcdXGyEL9OMKaPJquJNA-3" target="h0y96UvHI-Y2kzttv8R7-5">
          <mxGeometry relative="1" as="geometry" />
        </mxCell>
        <mxCell id="PcdXGyEL9OMKaPJquJNA-3" value="&lt;font style=&quot;font-size: 25px;&quot;&gt;crm_sales_details&lt;/font&gt;" style="rounded=1;whiteSpace=wrap;html=1;fillColor=#f5f5f5;strokeColor=#666666;fontColor=#333333;" parent="1" vertex="1">
          <mxGeometry x="855" y="340" width="330" height="60" as="geometry" />
        </mxCell>
        <mxCell id="PcdXGyEL9OMKaPJquJNA-4" value="&lt;font style=&quot;font-size: 25px;&quot;&gt;crm_cust_info&lt;/font&gt;" style="rounded=1;whiteSpace=wrap;html=1;fillColor=#f5f5f5;strokeColor=#666666;fontColor=#333333;" parent="1" vertex="1">
          <mxGeometry x="855" y="430" width="330" height="60" as="geometry" />
        </mxCell>
        <mxCell id="PcdXGyEL9OMKaPJquJNA-5" value="&lt;font style=&quot;font-size: 25px;&quot;&gt;crm_prd_info&lt;/font&gt;" style="rounded=1;whiteSpace=wrap;html=1;fillColor=#f5f5f5;strokeColor=#666666;fontColor=#333333;" parent="1" vertex="1">
          <mxGeometry x="855" y="520" width="330" height="60" as="geometry" />
        </mxCell>
        <mxCell id="PcdXGyEL9OMKaPJquJNA-6" value="&lt;font style=&quot;font-size: 25px;&quot;&gt;erp_px_cat_g1v2&lt;/font&gt;" style="rounded=1;whiteSpace=wrap;html=1;fillColor=#f5f5f5;strokeColor=#666666;fontColor=#333333;" parent="1" vertex="1">
          <mxGeometry x="855" y="900" width="330" height="60" as="geometry" />
        </mxCell>
        <mxCell id="PcdXGyEL9OMKaPJquJNA-7" value="&lt;font style=&quot;font-size: 25px;&quot;&gt;erp_loc_a101&lt;/font&gt;" style="rounded=1;whiteSpace=wrap;html=1;fillColor=#f5f5f5;strokeColor=#666666;fontColor=#333333;" parent="1" vertex="1">
          <mxGeometry x="855" y="810" width="330" height="60" as="geometry" />
        </mxCell>
        <mxCell id="PcdXGyEL9OMKaPJquJNA-8" value="&lt;font style=&quot;font-size: 25px;&quot;&gt;erp_cust_az12&lt;/font&gt;" style="rounded=1;whiteSpace=wrap;html=1;fillColor=#f5f5f5;strokeColor=#666666;fontColor=#333333;" parent="1" vertex="1">
          <mxGeometry x="855" y="720" width="330" height="60" as="geometry" />
        </mxCell>
        <mxCell id="h0y96UvHI-Y2kzttv8R7-2" value="&lt;font style=&quot;font-size: 30px;&quot;&gt;&lt;b&gt;Gold Layer&lt;/b&gt;&lt;/font&gt;" style="rounded=1;whiteSpace=wrap;html=1;fillColor=#fff2cc;strokeColor=#d6b656;arcSize=22;" vertex="1" parent="1">
          <mxGeometry x="1280" y="150" width="360" height="70" as="geometry" />
        </mxCell>
        <mxCell id="h0y96UvHI-Y2kzttv8R7-3" value="&lt;font style=&quot;font-size: 25px;&quot;&gt;dim_customers&lt;/font&gt;" style="rounded=1;whiteSpace=wrap;html=1;fillColor=#fff2cc;strokeColor=#d6b656;" vertex="1" parent="1">
          <mxGeometry x="1295" y="570" width="330" height="60" as="geometry" />
        </mxCell>
        <mxCell id="h0y96UvHI-Y2kzttv8R7-4" value="&lt;font style=&quot;font-size: 25px;&quot;&gt;dim_products&lt;/font&gt;" style="rounded=1;whiteSpace=wrap;html=1;fillColor=#fff2cc;strokeColor=#d6b656;" vertex="1" parent="1">
          <mxGeometry x="1295" y="790" width="330" height="60" as="geometry" />
        </mxCell>
        <mxCell id="h0y96UvHI-Y2kzttv8R7-5" value="&lt;font style=&quot;font-size: 25px;&quot;&gt;fact_sales&lt;/font&gt;" style="rounded=1;whiteSpace=wrap;html=1;fillColor=#fff2cc;strokeColor=#d6b656;" vertex="1" parent="1">
          <mxGeometry x="1295" y="340" width="330" height="60" as="geometry" />
        </mxCell>
        <mxCell id="h0y96UvHI-Y2kzttv8R7-15" value="" style="endArrow=classic;html=1;rounded=0;entryX=0;entryY=0.5;entryDx=0;entryDy=0;exitX=1;exitY=0.5;exitDx=0;exitDy=0;" edge="1" parent="1" source="PcdXGyEL9OMKaPJquJNA-4" target="h0y96UvHI-Y2kzttv8R7-3">
          <mxGeometry width="50" height="50" relative="1" as="geometry">
            <mxPoint x="900" y="760" as="sourcePoint" />
            <mxPoint x="950" y="710" as="targetPoint" />
          </mxGeometry>
        </mxCell>
        <mxCell id="h0y96UvHI-Y2kzttv8R7-16" value="" style="endArrow=classic;html=1;rounded=0;entryX=0;entryY=0.5;entryDx=0;entryDy=0;exitX=1;exitY=0.5;exitDx=0;exitDy=0;" edge="1" parent="1" source="PcdXGyEL9OMKaPJquJNA-8" target="h0y96UvHI-Y2kzttv8R7-3">
          <mxGeometry width="50" height="50" relative="1" as="geometry">
            <mxPoint x="900" y="760" as="sourcePoint" />
            <mxPoint x="950" y="710" as="targetPoint" />
          </mxGeometry>
        </mxCell>
        <mxCell id="h0y96UvHI-Y2kzttv8R7-17" value="" style="endArrow=classic;html=1;rounded=0;entryX=0;entryY=0.5;entryDx=0;entryDy=0;exitX=1;exitY=0.5;exitDx=0;exitDy=0;" edge="1" parent="1" source="PcdXGyEL9OMKaPJquJNA-7" target="h0y96UvHI-Y2kzttv8R7-3">
          <mxGeometry width="50" height="50" relative="1" as="geometry">
            <mxPoint x="900" y="580" as="sourcePoint" />
            <mxPoint x="950" y="530" as="targetPoint" />
          </mxGeometry>
        </mxCell>
        <mxCell id="h0y96UvHI-Y2kzttv8R7-18" value="" style="endArrow=classic;html=1;rounded=0;entryX=0;entryY=0.5;entryDx=0;entryDy=0;exitX=1;exitY=0.5;exitDx=0;exitDy=0;" edge="1" parent="1" source="PcdXGyEL9OMKaPJquJNA-6" target="h0y96UvHI-Y2kzttv8R7-4">
          <mxGeometry width="50" height="50" relative="1" as="geometry">
            <mxPoint x="900" y="580" as="sourcePoint" />
            <mxPoint x="950" y="530" as="targetPoint" />
          </mxGeometry>
        </mxCell>
        <mxCell id="h0y96UvHI-Y2kzttv8R7-19" value="" style="endArrow=classic;html=1;rounded=0;entryX=0;entryY=0.5;entryDx=0;entryDy=0;exitX=1;exitY=0.5;exitDx=0;exitDy=0;" edge="1" parent="1" source="PcdXGyEL9OMKaPJquJNA-5" target="h0y96UvHI-Y2kzttv8R7-4">
          <mxGeometry width="50" height="50" relative="1" as="geometry">
            <mxPoint x="900" y="580" as="sourcePoint" />
            <mxPoint x="950" y="530" as="targetPoint" />
          </mxGeometry>
        </mxCell>
      </root>
    </mxGraphModel>
  </diagram>
</mxfile>
